


 
http://www.imdb.com/title/tt0453562/


The life story of Jackie Robinson and his history-making signing with the Brooklyn Dodgers under the guidance of team executive Branch Rickey. 



Director:
 Brian Helgeland 

Writer:
 Brian Helgeland (screenplay) 

Stars:
 Chadwick Boseman, Harrison Ford, Nicole Beharie 

Genres:
  Biography |  Drama |  Sport 

Country:
 USA 

Language:
 English 


Format                                   : RealMedia
File size                                : 444 MiB
Duration                                 : 1h 49mn
Overall bit rate                         : 557 Kbps
Movie name                               : 42-rm

Video
ID                                       : 1
Format                                   : RealVideo 4
Codec ID                                 : RV40
Codec ID/Info                            : Based on AVC (H.264), Real Player 9
Duration                                 : 1h 49mn
Bit rate                                 : 461 Kbps
Width                                    : 720 pixels
Height                                   : 408 pixels
Display aspect ratio                     : 16:9
Frame rate                               : 23.976 fps
Bits/(Pixel*Frame)                       : 0.065
Stream size                              : 362 MiB (82%)

Audio
ID                                       : 0
Format                                   : AAC
Format/Info                              : Advanced Audio Codec
Format profile                           : LC
Codec ID                                 : raac
Codec ID/Info                            : Real Player 9
Duration                                 : 1h 49mn
Bit rate                                 : 96.0 Kbps
Channel(s)                               : 2 channels
Sampling rate                            : 44.1 KHz
Bit depth                                : 16 bits
Compression mode                         : Lossy
Stream size                              : 75.5 MiB (17%)



    	http://www.shotpix.com/images/00746428984902932130.jpg
    	http://www.shotpix.com/images/20573439409005337832.jpg
    	http://www.shotpix.com/images/71891290044232159527.jpg